# ProBuilder 5.0.7
# https://unity3d.com/unity/features/worldbuilding/probuilder
# 21/11/2023 12:38:47

mtllib ./Icosphere.mtl
o Icosphere

g Boulder
v 8.92003 10.18864 13.9
v 9.41578 9.575001 14.44078
v 8.540779 10.11578 14.775
v 9.488639 8.700001 14.82003
v 8.875 9.24078 15.31578
v 8 9.62003 15.38864
v 8 10.45 13.9
v 7.45922 10.11578 14.775
v 7.07997 10.18864 13.9
v 8.540779 10.11578 13.025
v 7.45922 10.11578 13.025
v 8 9.62003 12.41136
v 9.41578 9.575001 13.35922
v 8.875 9.24078 12.48422
v 9.488639 8.700001 12.97997
v 9.75 8.700001 13.9
v 6.58422 9.575001 14.44078
v 7.125 9.24078 15.31578
v 6.511361 8.700001 14.82003
v 8 8.700001 15.65
v 8.875 8.159222 15.31578
v 8 7.779971 15.38864
v 9.41578 7.825001 14.44078
v 9.41578 7.825001 13.35922
v 8.92003 7.211362 13.9
v 8.875 8.159222 12.48422
v 8 8.700001 12.15
v 8 7.779971 12.41136
v 7.125 9.24078 12.48422
v 6.58422 9.575001 13.35922
v 6.511361 8.700001 12.97997
v 7.07997 7.211362 13.9
v 6.58422 7.825001 14.44078
v 7.45922 7.284221 14.775
v 7.125 8.159222 15.31578
v 8 6.950001 13.9
v 8.540779 7.284221 14.775
v 7.45922 7.284221 13.025
v 8.540779 7.284221 13.025
v 6.58422 7.825001 13.35922
v 7.125 8.159222 12.48422
v 6.25 8.700001 13.9

vt -0.9200295 0
vt -1.41578 0.5407796
vt -0.5407797 0.875
vt 1.41578 0.8750001
vt 0.8750001 0.5407797
vt 0.5407797 1.41578
vt 6.387162E-08 0.9200295
vt -6.139804E-08 0
vt -3.227886E-08 1.488639
vt 0.5407795 0.875
vt 0.9200293 0
vt -0.5407797 -0.875
vt 0.5407795 -0.875
vt -3.227886E-08 -1.488639
vt -1.41578 -0.5407797
vt -0.5407797 1.41578
vt -0.8750001 0.5407797
vt -1.41578 0.8750001
vt 1.41578 0.5407796
vt -0.8749999 0.5407797
vt 1.488639 7.017748E-08
vt 0.8750001 -0.5407795
vt 6.387162E-08 -0.9200293
vt -1.488639 6.14053E-08
vt -0.8750001 -0.5407795
vt 0.8749999 0.5407797
vt 1.41578 -0.5407797
vt -1.41578 -0.8749999
vt -0.8749999 -0.5407795
vt -0.5407795 -1.415779
vt 0.5407795 -1.41578
vt 0.8749999 -0.5407795
vt 1.41578 -0.8749999

vn 0.5831288 0.7487836 0.3150937
vn 0.7487833 0.3150937 0.583129
vn 0.5773503 0.5773501 0.5773505
vn 0.315094 0.5831285 0.7487836
vn 0.268035 0.9435223 0.1947384
vn 0 0.7778673 0.6284286
vn 0 0.9341725 0.3568218
vn -0.268035 0.9435223 0.1947384
vn 0.268035 0.9435223 -0.1947384
vn -0.268035 0.9435223 -0.1947384
vn 0 0.9341725 -0.3568218
vn 0 0.7778673 -0.6284286
vn 0.5831288 0.7487836 -0.3150937
vn 0.315094 0.5831285 -0.7487836
vn 0.5773502 0.5773501 -0.5773505
vn 0.7487833 0.3150937 -0.583129
vn 0.7778673 0.6284286 0
vn 0.9435223 0.1947384 -0.268035
vn 0.9341725 0.3568218 0
vn 0.9435223 0.1947384 0.268035
vn -0.583129 0.7487833 0.3150937
vn -0.315094 0.5831285 0.7487836
vn -0.5773505 0.5773501 0.5773503
vn -0.7487834 0.3150941 0.5831288
vn 0.1947389 0.2680349 0.9435222
vn 0.6284282 0 0.7778676
vn 0.3568223 0 0.9341723
vn 0.1947389 -0.2680349 0.9435222
vn 0.9435223 -0.1947384 0.268035
vn 0.9435223 -0.1947384 -0.268035
vn 0.9341725 -0.3568218 0
vn 0.7778673 -0.6284286 0
vn 0.6284282 0 -0.7778676
vn 0.1947389 0.2680349 -0.9435222
vn 0.3568223 0 -0.9341723
vn 0.1947389 -0.2680349 -0.9435222
vn -0.315094 0.5831285 -0.7487836
vn -0.583129 0.7487833 -0.3150937
vn -0.5773504 0.5773501 -0.5773503
vn -0.7487834 0.315094 -0.5831288
vn -0.5831288 -0.7487834 0.3150941
vn -0.7487834 -0.3150941 0.5831288
vn -0.5773503 -0.5773503 0.5773503
vn -0.3150941 -0.5831288 0.7487834
vn -0.2680349 -0.9435222 0.1947389
vn 0 -0.7778676 0.6284282
vn 0 -0.9341723 0.3568223
vn 0.2680349 -0.9435222 0.1947389
vn -0.2680349 -0.9435222 -0.1947389
vn 0.2680349 -0.9435222 -0.1947389
vn 0 -0.9341723 -0.3568223
vn 0 -0.7778676 -0.6284282
vn -0.5831288 -0.7487834 -0.3150941
vn -0.3150941 -0.5831288 -0.7487834
vn -0.5773503 -0.5773503 -0.5773503
vn -0.7487834 -0.315094 -0.5831288
vn -0.7778676 -0.6284282 0
vn -0.9435222 -0.1947389 -0.2680349
vn -0.9341723 -0.3568223 0
vn -0.9435222 -0.1947389 0.2680349
vn -0.1947389 -0.2680349 0.9435222
vn -0.6284282 0 0.7778676
vn -0.3568223 0 0.9341723
vn -0.1947389 0.2680349 0.9435222
vn 0.5831285 -0.7487836 0.315094
vn 0.3150941 -0.5831288 0.7487834
vn 0.5773501 -0.5773503 0.5773505
vn 0.7487833 -0.3150937 0.583129
vn 0.3150941 -0.5831288 -0.7487834
vn 0.5831285 -0.7487836 -0.315094
vn 0.57735 -0.5773503 -0.5773505
vn 0.7487833 -0.3150937 -0.583129
vn -0.6284282 0 -0.7778676
vn -0.1947389 -0.2680349 -0.9435222
vn -0.3568223 0 -0.9341723
vn -0.1947389 0.2680349 -0.9435222
vn -0.9435222 0.1947389 0.2680349
vn -0.9435222 0.1947389 -0.2680349
vn -0.9341723 0.3568222 0
vn -0.7778676 0.6284282 0

usemtl M_Grey
f 3/3/1 2/2/1 1/1/1
f 5/2/2 4/1/2 2/3/2
f 3/6/3 5/5/3 2/4/3
f 6/7/4 5/5/4 3/6/4
f 7/8/5 3/3/5 1/1/5
f 8/10/6 6/9/6 3/3/6
f 7/8/7 8/10/7 3/3/7
f 9/11/8 8/10/8 7/8/8
f 10/12/9 7/8/9 1/1/9
f 11/13/10 9/11/10 7/8/10
f 10/12/11 11/13/11 7/8/11
f 12/14/12 11/13/12 10/12/12
f 13/15/13 10/12/13 1/1/13
f 14/17/14 12/7/14 10/16/14
f 13/18/15 14/17/15 10/16/15
f 15/11/16 14/19/16 13/10/16
f 2/3/17 13/10/17 1/9/17
f 16/8/18 15/11/18 13/10/18
f 2/3/19 16/8/19 13/10/19
f 4/1/20 16/8/20 2/3/20
f 17/19/21 8/10/21 9/11/21
f 18/20/22 6/7/22 8/16/22
f 17/18/23 18/20/23 8/16/23
f 19/11/24 18/19/24 17/10/24
f 20/8/25 5/5/25 6/7/25
f 21/22/26 4/21/26 5/5/26
f 20/8/27 21/22/27 5/5/27
f 22/23/28 21/22/28 20/8/28
f 23/12/29 16/8/29 4/1/29
f 24/13/30 15/11/30 16/8/30
f 23/12/31 24/13/31 16/8/31
f 25/14/32 24/13/32 23/12/32
f 26/25/33 14/17/33 15/24/33
f 27/8/34 12/7/34 14/17/34
f 26/25/35 27/8/35 14/17/35
f 28/23/36 27/8/36 26/25/36
f 29/26/37 11/6/37 12/7/37
f 30/27/38 9/11/38 11/13/38
f 29/26/39 30/4/39 11/6/39
f 31/1/40 30/3/40 29/2/40
f 34/3/41 33/2/41 32/1/41
f 35/27/42 19/11/42 33/13/42
f 34/30/43 35/29/43 33/28/43
f 22/23/44 35/29/44 34/30/44
f 36/8/45 34/3/45 32/1/45
f 37/10/46 22/9/46 34/3/46
f 36/8/47 37/10/47 34/3/47
f 25/11/48 37/10/48 36/8/48
f 38/12/49 36/8/49 32/1/49
f 39/13/50 25/11/50 36/8/50
f 38/12/51 39/13/51 36/8/51
f 28/14/52 39/13/52 38/12/52
f 40/15/53 38/12/53 32/1/53
f 41/32/54 28/23/54 38/31/54
f 40/33/55 41/32/55 38/31/55
f 31/1/56 41/15/56 40/12/56
f 33/13/57 40/12/57 32/14/57
f 42/8/58 31/1/58 40/12/58
f 33/13/59 42/8/59 40/12/59
f 19/11/60 42/8/60 33/13/60
f 20/8/61 35/29/61 22/23/61
f 18/20/62 19/24/62 35/29/62
f 20/8/63 18/20/63 35/29/63
f 6/7/64 18/20/64 20/8/64
f 23/19/65 37/10/65 25/11/65
f 21/22/66 22/23/66 37/31/66
f 23/33/67 21/22/67 37/31/67
f 4/1/68 21/15/68 23/12/68
f 26/25/69 39/30/69 28/23/69
f 24/27/70 25/11/70 39/13/70
f 26/25/71 24/28/71 39/30/71
f 15/11/72 24/13/72 26/27/72
f 29/26/73 41/32/73 31/21/73
f 27/8/74 28/23/74 41/32/74
f 29/26/75 27/8/75 41/32/75
f 12/7/76 27/8/76 29/26/76
f 17/10/77 42/8/77 19/11/77
f 30/3/78 31/1/78 42/8/78
f 17/10/79 30/3/79 42/8/79
f 9/9/80 30/3/80 17/10/80

