# ProBuilder 5.0.7
# https://unity3d.com/unity/features/worldbuilding/probuilder
# 28/11/2023 12:54:46

mtllib ./Target.mtl
o Target

g Cylinder
v 0.1469408 0.09745495 -0.7096444
v 0.1469408 0.247455 -0.7096444
v 0.2933874 0.09745495 -0.3560911
v 0.2933874 0.247455 -0.3560911
v 0.6469408 0.09745495 -0.2096444
v 0.6469408 0.247455 -0.2096444
v 1.000494 0.09745495 -0.3560911
v 1.000494 0.247455 -0.3560911
v 1.146941 0.09745495 -0.7096445
v 1.146941 0.247455 -0.7096445
v 1.000494 0.09745495 -1.063198
v 1.000494 0.247455 -1.063198
v 0.6469408 0.09745495 -1.209644
v 0.6469408 0.247455 -1.209644
v 0.2933874 0.09745495 -1.063198
v 0.2933874 0.247455 -1.063198
v 0.6469408 0.09745495 -0.7096444
v 0.5556288 0.247455 -0.7096444
v 0.6469408 0.247455 -0.7096444
v 0.5823734 0.247455 -0.6450771
v 0.6469408 0.247455 -0.6183324
v 0.711508 0.247455 -0.6450771
v 0.7382527 0.247455 -0.7096445
v 0.711508 0.247455 -0.7742118
v 0.6469408 0.247455 -0.8009564
v 0.5823734 0.247455 -0.7742118
v 0.9254942 0.247455 -0.431091
v 0.6469408 0.247455 -0.3157104
v 1.040875 0.247455 -0.7096445
v 0.3683873 0.247455 -0.431091
v 0.2530067 0.247455 -0.7096444
v 0.3683874 0.247455 -0.9881979
v 0.6469408 0.247455 -1.103578
v 0.9254943 0.247455 -0.9881979
v 0.839321 0.247455 -0.5172641
v 0.6469408 0.247455 -0.4375776
v 0.9190075 0.247455 -0.7096445
v 0.4545605 0.247455 -0.5172641
v 0.3748739 0.247455 -0.7096444
v 0.4545605 0.247455 -0.9020247
v 0.6469408 0.247455 -0.9817113
v 0.8393211 0.247455 -0.9020247
v 0.7645027 0.247455 -0.5920824
v 0.6469408 0.247455 -0.5433867
v 0.8131984 0.247455 -0.7096445
v 0.5293788 0.247455 -0.5920824
v 0.480683 0.247455 -0.7096444
v 0.5293788 0.247455 -0.8272064
v 0.6469408 0.247455 -0.8759022
v 0.7645027 0.247455 -0.8272064

vt -0.5993941 0.09745495
vt -0.5993941 0.247455
vt -0.2167107 0.09745495
vt -0.2167107 0.247455
vt 0.1347844 0.09745495
vt 0.1347844 0.247455
vt 0.5174679 0.09745495
vt 0.5174679 0.247455
vt 0.6779228 0.09745495
vt 0.6779228 0.247455
vt 1.060606 0.09745495
vt 1.060606 0.247455
vt 0.7118576 0.09745495
vt 0.7118576 0.247455
vt 1.094541 0.09745495
vt 1.094541 0.247455
vt 0.2167112 0.09745495
vt 0.2167112 0.247455
vt 0.5993946 0.09745495
vt 0.5993946 0.247455
vt -0.5174682 0.09745495
vt -0.5174682 0.247455
vt -0.1347847 0.09745495
vt -0.1347847 0.247455
vt -1.060606 0.09745495
vt -1.060606 0.247455
vt -0.6779228 0.09745495
vt -0.6779228 0.247455
vt -1.094541 0.09745495
vt -1.094541 0.247455
vt -0.7118578 0.09745495
vt -0.7118578 0.247455
vt 0.1469408 -0.7096444
vt 0.6469408 -0.7096444
vt 0.2933874 -0.3560911
vt -0.5556288 -0.7096444
vt -0.6469408 -0.7096444
vt -0.5823734 -0.6450771
vt 0.6469408 -0.2096444
vt -0.6469408 -0.6183324
vt 1.000494 -0.3560911
vt -0.711508 -0.6450771
vt 1.146941 -0.7096445
vt -0.7382527 -0.7096445
vt 1.000494 -1.063198
vt -0.711508 -0.7742118
vt 0.6469408 -1.209644
vt -0.6469408 -0.8009564
vt 0.2933874 -1.063198
vt -0.5823734 -0.7742118
vt -1.000494 -0.3560911
vt -0.6469408 -0.2096444
vt -0.9254942 -0.431091
vt -0.6469408 -0.3157104
vt -1.146941 -0.7096445
vt -1.040875 -0.7096445
vt -0.2933874 -0.3560911
vt -0.3683873 -0.431091
vt -0.1469408 -0.7096444
vt -0.2530067 -0.7096444
vt -0.2933874 -1.063198
vt -0.3683874 -0.9881979
vt -0.6469408 -1.209644
vt -0.6469408 -1.103578
vt -1.000494 -1.063198
vt -0.9254943 -0.9881979
vt -0.839321 -0.5172641
vt -0.6469408 -0.4375776
vt -0.9190075 -0.7096445
vt -0.4545605 -0.5172641
vt -0.3748739 -0.7096444
vt -0.4545605 -0.9020247
vt -0.6469408 -0.9817113
vt -0.8393211 -0.9020247
vt -0.7645027 -0.5920824
vt -0.6469408 -0.5433867
vt -0.8131984 -0.7096445
vt -0.5293788 -0.5920824
vt -0.480683 -0.7096444
vt -0.5293788 -0.8272064
vt -0.6469408 -0.8759022
vt -0.7645027 -0.8272064

vn -0.9238795 0 0.3826835
vn -0.3826835 0 0.9238795
vn 0.3826835 0 0.9238795
vn 0.9238796 0 0.3826833
vn 0.9238797 0 -0.3826832
vn 0.3826833 0 -0.9238796
vn -0.3826834 0 -0.9238796
vn -0.9238795 0 -0.3826836
vn 0 -1 0
vn 0 1 0

usemtl M_White
f 1/33/9 17/34/9 3/35/9
f 3/35/9 17/34/9 5/39/9
f 5/39/9 17/34/9 7/41/9
f 7/41/9 17/34/9 9/43/9
f 9/43/9 17/34/9 11/45/9
f 11/45/9 17/34/9 13/47/9
f 13/47/9 17/34/9 15/49/9
f 15/49/9 17/34/9 1/33/9
f 4/4/1 2/2/1 1/1/1
f 1/1/1 3/3/1 4/4/1
f 6/8/2 4/6/2 3/5/2
f 3/5/2 5/7/2 6/8/2
f 8/12/3 6/10/3 5/9/3
f 5/9/3 7/11/3 8/12/3
f 10/16/4 8/14/4 7/13/4
f 7/13/4 9/15/4 10/16/4
f 12/20/5 10/18/5 9/17/5
f 9/17/5 11/19/5 12/20/5
f 14/24/6 12/22/6 11/21/6
f 11/21/6 13/23/6 14/24/6
f 16/28/7 14/26/7 13/25/7
f 13/25/7 15/27/7 16/28/7
f 2/32/8 16/30/8 15/29/8
f 15/29/8 1/31/8 2/32/8
f 28/54/10 6/52/10 8/51/10
f 8/51/10 27/53/10 28/54/10
f 27/53/10 8/51/10 10/55/10
f 10/55/10 29/56/10 27/53/10
f 30/58/10 4/57/10 6/52/10
f 6/52/10 28/54/10 30/58/10
f 31/60/10 2/59/10 4/57/10
f 4/57/10 30/58/10 31/60/10
f 32/62/10 16/61/10 2/59/10
f 2/59/10 31/60/10 32/62/10
f 33/64/10 14/63/10 16/61/10
f 16/61/10 32/62/10 33/64/10
f 34/66/10 12/65/10 14/63/10
f 14/63/10 33/64/10 34/66/10
f 29/56/10 10/55/10 12/65/10
f 12/65/10 34/66/10 29/56/10

usemtl M_Yellow
f 20/38/10 19/37/10 18/36/10
f 21/40/10 19/37/10 20/38/10
f 22/42/10 19/37/10 21/40/10
f 23/44/10 19/37/10 22/42/10
f 24/46/10 19/37/10 23/44/10
f 25/48/10 19/37/10 24/46/10
f 26/50/10 19/37/10 25/48/10
f 18/36/10 19/37/10 26/50/10

usemtl M_Red
f 18/36/10 26/50/10 48/80/10 47/79/10
f 20/38/10 18/36/10 47/79/10 46/78/10
f 26/50/10 25/48/10 49/81/10 48/80/10
f 25/48/10 24/46/10 50/82/10 49/81/10
f 24/46/10 23/44/10 45/77/10 50/82/10
f 23/44/10 22/42/10 43/75/10 45/77/10
f 22/42/10 21/40/10 44/76/10 43/75/10
f 21/40/10 20/38/10 46/78/10 44/76/10

usemtl M_Blue
f 43/75/10 44/76/10 36/68/10 35/67/10
f 45/77/10 43/75/10 35/67/10 37/69/10
f 44/76/10 46/78/10 38/70/10 36/68/10
f 46/78/10 47/79/10 39/71/10 38/70/10
f 47/79/10 48/80/10 40/72/10 39/71/10
f 48/80/10 49/81/10 41/73/10 40/72/10
f 49/81/10 50/82/10 42/74/10 41/73/10
f 50/82/10 45/77/10 37/69/10 42/74/10

usemtl M_Black
f 35/67/10 36/68/10 28/54/10 27/53/10
f 37/69/10 35/67/10 27/53/10 29/56/10
f 36/68/10 38/70/10 30/58/10 28/54/10
f 38/70/10 39/71/10 31/60/10 30/58/10
f 39/71/10 40/72/10 32/62/10 31/60/10
f 40/72/10 41/73/10 33/64/10 32/62/10
f 41/73/10 42/74/10 34/66/10 33/64/10
f 42/74/10 37/69/10 29/56/10 34/66/10

